<svg xmlns="http://www.w3.org/2000/svg" viewBox="0 0 900 450">
<rect width="900" height="450" fill="#00008B"/>
<rect width="375" height="225" fill="#00008B"/>
<line x1="0" y1="0" x2="375" y2="225" stroke="white" stroke-width="50"/>
<line x1="375" y1="0" x2="0" y2="225" stroke="white" stroke-width="50"/>
<line x1="0" y1="0" x2="375" y2="225" stroke="#CC0000" stroke-width="34"/>
<line x1="375" y1="0" x2="0" y2="225" stroke="#CC0000" stroke-width="34"/>
<rect x="155" y="0" width="65" height="225" fill="white"/>
<rect y="80" width="375" height="65" fill="white"/>
<rect x="172" y="0" width="31" height="225" fill="#CC0000"/>
<rect y="97" width="375" height="31" fill="#CC0000"/>
<polygon points="185,270 191,291 214,291 196,305 202,326 185,313 168,326 174,305 156,291 179,291" fill="white"/>
<polygon points="185,270 190,289 209,289 194,301 199,320 185,308 171,320 176,301 161,289 180,289" fill="#CC0000"/>
<polygon points="556,296 562,314 582,315 567,326 572,344 556,334 540,344 545,326 530,315 550,314" fill="white"/>
<polygon points="556,296 561,311 578,311 564,321 569,336 556,328 543,336 548,321 534,311 551,311" fill="#CC0000"/>
<polygon points="744,182 750,200 770,201 755,212 760,230 744,220 728,230 733,212 718,201 738,200" fill="white"/>
<polygon points="744,182 749,197 766,198 753,208 757,223 744,214 731,223 735,208 722,198 739,197" fill="#CC0000"/>
<polygon points="668,97 674,115 694,116 679,127 684,145 668,135 652,145 657,127 642,116 662,115" fill="white"/>
<polygon points="668,97 673,112 690,113 677,122 681,137 668,129 655,137 659,122 646,113 663,112" fill="#CC0000"/>
<polygon points="790,68 796,86 816,87 801,98 806,116 790,106 774,116 779,98 764,87 784,86" fill="white"/>
<polygon points="790,68 795,83 812,84 799,93 803,108 790,100 777,108 781,93 768,84 785,83" fill="#CC0000"/>
<g transform="translate(185,337)">
<polygon points="0,-16 3,-8 12,-8 5,-3 8,5 0,-1 -8,5 -5,-3 -12,-8 -3,-8" fill="white"/>
</g>
</svg>