<svg xmlns="http://www.w3.org/2000/svg" viewBox="0 0 900 450">
<rect width="900" height="450" fill="#00008B"/>
<rect x="0" y="0" width="375" height="225" fill="#00008B"/>
<line x1="0" y1="0" x2="375" y2="225" stroke="white" stroke-width="45"/>
<line x1="375" y1="0" x2="0" y2="225" stroke="white" stroke-width="45"/>
<line x1="0" y1="0" x2="375" y2="225" stroke="#CC0000" stroke-width="30"/>
<line x1="375" y1="0" x2="0" y2="225" stroke="#CC0000" stroke-width="30"/>
<rect x="155" y="0" width="65" height="225" fill="white"/>
<rect y="80" width="375" height="65" fill="white"/>
<rect x="170" y="0" width="35" height="225" fill="#CC0000"/>
<rect y="95" width="375" height="35" fill="#CC0000"/>
<polygon points="560.0,300.0 571.8,333.8 607.6,334.5 579.0,356.2 589.4,390.5 560.0,370.0 530.6,390.5 541.0,356.2 512.4,334.5 548.2,333.8" fill="white"/>
<polygon points="750.0,200.0 757.1,220.3 778.5,220.7 761.4,233.7 767.6,254.3 750.0,242.0 732.4,254.3 738.6,233.7 721.5,220.7 742.9,220.3" fill="white"/>
<polygon points="670.0,110.0 677.1,130.3 698.5,130.7 681.4,143.7 687.6,164.3 670.0,152.0 652.4,164.3 658.6,143.7 641.5,130.7 662.9,130.3" fill="white"/>
<polygon points="790.0,80.0 797.1,100.3 818.5,100.7 801.4,113.7 807.6,134.3 790.0,122.0 772.4,134.3 778.6,113.7 761.5,100.7 782.9,100.3" fill="white"/>
<polygon points="750.0,280.0 757.1,300.3 778.5,300.7 761.4,313.7 767.6,334.3 750.0,322.0 732.4,334.3 738.6,313.7 721.5,300.7 742.9,300.3" fill="white"/>
</svg>