<svg xmlns="http://www.w3.org/2000/svg" viewBox="0 0 900 600">
<polygon points="0,0 900,600 0,600" fill="#E8112D"/>
<polygon points="0,0 900,0 900,600" fill="#FF8000"/>
<g transform="translate(450,295)" fill="white" opacity="0.95">
<path d="M0,-115 C-15,-108 -38,-85 -52,-55 C-65,-25 -62,5 -48,28 C-38,44 -28,52 -22,60 C-16,68 -12,75 0,78 C12,75 16,68 22,60 C28,52 38,44 48,28 C62,5 65,-25 52,-55 C38,-85 15,-108 0,-115Z"/>
<ellipse cx="-62" cy="-58" rx="32" ry="28"/>
<ellipse cx="62" cy="-58" rx="32" ry="28"/>
<circle cx="-32" cy="52" r="14" fill="orange"/>
<circle cx="32" cy="52" r="14" fill="orange"/>
<ellipse cx="0" cy="-72" rx="28" ry="16"/>
<circle cx="-20" cy="-100" r="12" fill="orange"/>
<circle cx="20" cy="-100" r="12" fill="orange"/>
</g></svg>