<svg xmlns="http://www.w3.org/2000/svg" viewBox="0 0 900 600">
<line x1="0" y1="0" x2="900" y2="600" stroke="#FFFFFF" stroke-width="60"/>
<line x1="900" y1="0" x2="0" y2="600" stroke="#FFFFFF" stroke-width="60"/>
<polygon points="0,0 450,300 0,600" fill="#CE1126"/>
<polygon points="900,0 450,300 900,600" fill="#CE1126"/>
<polygon points="0,0 900,0 450,300" fill="#1EB53A"/>
<polygon points="0,600 900,600 450,300" fill="#1EB53A"/>
<circle cx="450" cy="300" r="80" fill="#FFFFFF"/>
<polygon points="450.0,245.0 455.9,261.9 473.8,262.3 459.5,273.1 464.7,290.2 450.0,280.0 435.3,290.2 440.5,273.1 426.2,262.3 444.1,261.9" fill="#CE1126"/>
<polygon points="425.0,290.0 430.9,306.9 448.8,307.3 434.5,318.1 439.7,335.2 425.0,325.0 410.3,335.2 415.5,318.1 401.2,307.3 419.1,306.9" fill="#CE1126"/>
<polygon points="475.0,290.0 480.9,306.9 498.8,307.3 484.5,318.1 489.7,335.2 475.0,325.0 460.3,335.2 465.5,318.1 451.2,307.3 469.1,306.9" fill="#CE1126"/>
</svg>