<svg xmlns="http://www.w3.org/2000/svg" viewBox="0 0 900 600">
<rect width="900" height="600" fill="#032EA1"/>
<rect y="200" width="900" height="200" fill="#E00025"/>
<g fill="#FFFFFF">
  <rect x="282" y="168" width="336" height="220"/>
  <rect x="282" y="168" width="336" height="220" fill="#E00025"/>
  <rect x="282" y="168" width="336" height="220" fill="none"/>
  <rect x="282" y="228" width="336" height="160" fill="#FFFFFF"/>
  <rect x="340" y="148" width="220" height="80" fill="#FFFFFF"/>
  <rect x="390" y="108" width="120" height="80" fill="#FFFFFF"/>
  <rect x="420" y="72" width="60" height="75" fill="#FFFFFF"/>
  <rect x="282" y="228" width="56" height="160" fill="#032EA1"/>
  <rect x="562" y="228" width="56" height="160" fill="#032EA1"/>
  <rect x="354" y="208" width="42" height="180" fill="#032EA1"/>
  <rect x="504" y="208" width="42" height="180" fill="#032EA1"/>
  <rect x="420" y="188" width="60" height="200" fill="#032EA1"/>
  <rect x="340" y="148" width="32" height="80" fill="#032EA1"/>
  <rect x="528" y="148" width="32" height="80" fill="#032EA1"/>
  <rect x="390" y="108" width="28" height="80" fill="#032EA1"/>
  <rect x="482" y="108" width="28" height="80" fill="#032EA1"/>
  <rect x="420" y="72" width="22" height="75" fill="#032EA1"/>
  <rect x="458" y="72" width="22" height="75" fill="#032EA1"/>
</g>
</svg>