<svg xmlns="http://www.w3.org/2000/svg" viewBox="0 0 900 600">
<rect width="900" height="600" fill="#EE1C25"/>
<polygon points="150.0,70.0 168.8,124.1 226.1,125.3 180.4,159.9 197.0,214.7 150.0,182.0 103.0,214.7 119.6,159.9 73.9,125.3 131.2,124.1" fill="#FFFF00"/>
<polygon points="300.0,45.0 308.2,68.7 333.3,69.2 313.3,84.3 320.6,108.3 300.0,94.0 279.4,108.3 286.7,84.3 266.7,69.2 291.8,68.7" fill="#FFFF00"/>
<polygon points="360.0,115.0 368.2,138.7 393.3,139.2 373.3,154.3 380.6,178.3 360.0,164.0 339.4,178.3 346.7,154.3 326.7,139.2 351.8,138.7" fill="#FFFF00"/>
<polygon points="340.0,205.0 348.2,228.7 373.3,229.2 353.3,244.3 360.6,268.3 340.0,254.0 319.4,268.3 326.7,244.3 306.7,229.2 331.8,228.7" fill="#FFFF00"/>
<polygon points="280.0,260.0 288.2,283.7 313.3,284.2 293.3,299.3 300.6,323.3 280.0,309.0 259.4,323.3 266.7,299.3 246.7,284.2 271.8,283.7" fill="#FFFF00"/>
</svg>