<svg xmlns="http://www.w3.org/2000/svg" viewBox="0 0 900 600">
<rect width="900" height="150" fill="#FFFFFF"/>
<rect y="150" width="900" height="150" fill="#FFC61E"/>
<rect y="300" width="900" height="150" fill="#D21034"/>
<rect y="450" width="900" height="150" fill="#3A75C4"/>
<polygon points="0,0 370,300 0,600" fill="#3D8B37"/>
<circle cx="148" cy="300" r="98" fill="#FFFFFF"/>
<circle cx="178" cy="300" r="80" fill="#3D8B37"/>
<g fill="white">
<polygon points="118,210 123,225 138,226 126,235 131,250 118,242 105,250 110,235 98,226 113,225"/>
<polygon points="143,248 148,263 163,264 151,273 156,288 143,280 130,288 135,273 123,264 138,263"/>
<polygon points="168,280 173,295 188,296 176,305 181,320 168,312 155,320 160,305 148,296 163,295"/>
<polygon points="143,310 148,325 163,326 151,335 156,350 143,342 130,350 135,335 123,326 138,325"/>
</g></svg>