<svg xmlns="http://www.w3.org/2000/svg" viewBox="0 0 900 600">
<rect width="900" height="600" fill="#3A75C4"/>
<polygon points="0,0 450,300 0,600" fill="#3D8B37"/>
<rect y="150" width="900" height="75" fill="#FFFFFF"/>
<rect y="225" width="900" height="75" fill="#FFDD00"/>
<rect y="300" width="900" height="75" fill="#E8112D"/>
<circle cx="180" cy="300" r="90" fill="#FFFFFF"/>
<circle cx="210" cy="300" r="75" fill="#3D8B37"/>
<polygon points="140.0,225.0 145.9,241.9 163.8,242.3 149.5,253.1 154.7,270.2 140.0,260.0 125.3,270.2 130.5,253.1 116.2,242.3 134.1,241.9" fill="white"/>
<polygon points="165.0,280.0 170.9,296.9 188.8,297.3 174.5,308.1 179.7,325.2 165.0,315.0 150.3,325.2 155.5,308.1 141.2,297.3 159.1,296.9" fill="white"/>
<polygon points="140.0,330.0 145.9,346.9 163.8,347.3 149.5,358.1 154.7,375.2 140.0,365.0 125.3,375.2 130.5,358.1 116.2,347.3 134.1,346.9" fill="white"/>
<polygon points="95.0,330.0 100.9,346.9 118.8,347.3 104.5,358.1 109.7,375.2 95.0,365.0 80.3,375.2 85.5,358.1 71.2,347.3 89.1,346.9" fill="white"/>
</svg>