<svg xmlns="http://www.w3.org/2000/svg" viewBox="0 0 900 600">
<rect width="900" height="600" fill="#006B3F"/>
<rect x="325" width="75" height="600" fill="#000000"/>
<rect x="400" width="75" height="600" fill="#FFD100"/>
<rect x="475" width="75" height="600" fill="#FFFFFF"/>
<rect y="225" width="900" height="75" fill="#000000"/>
<rect y="300" width="900" height="75" fill="#FFD100"/>
<rect y="375" width="900" height="75" fill="#FFFFFF"/>
<circle cx="450" cy="300" r="115" fill="#CE1126"/>
<circle cx="450" cy="300" r="85" fill="#006B3F"/>
<ellipse cx="450" cy="268" rx="30" ry="50" fill="#6B3F17" transform="rotate(-10,450,268)"/>
<circle cx="455" cy="248" r="18" fill="#CE1126"/>
<g fill="#006B3F">
<circle cx="438" cy="222" r="6"/>
<circle cx="462" cy="222" r="6"/>
<circle cx="450" cy="210" r="6"/>
</g>
<g fill="#FFD700">
<circle cx="450" cy="192" r="5"/>
<circle cx="430" cy="198" r="5"/>
<circle cx="470" cy="198" r="5"/>
<circle cx="418" cy="210" r="5"/>
<circle cx="482" cy="210" r="5"/>
<circle cx="415" cy="225" r="5"/>
<circle cx="485" cy="225" r="5"/>
<circle cx="418" cy="240" r="5"/>
<circle cx="482" cy="240" r="5"/>
<circle cx="425" cy="254" r="5"/>
<circle cx="475" cy="254" r="5"/>
</g></svg>