<svg xmlns="http://www.w3.org/2000/svg" viewBox="0 0 900 450">
<rect width="900" height="450" fill="#68BFE5"/>
<rect width="375" height="225" fill="#003082"/>
<line x1="0" y1="0" x2="375" y2="225" stroke="white" stroke-width="48"/>
<line x1="375" y1="0" x2="0" y2="225" stroke="white" stroke-width="48"/>
<line x1="0" y1="0" x2="375" y2="225" stroke="#CC0000" stroke-width="32"/>
<line x1="375" y1="0" x2="0" y2="225" stroke="#CC0000" stroke-width="32"/>
<rect x="156" y="0" width="63" height="225" fill="white"/>
<rect y="81" width="375" height="63" fill="white"/>
<rect x="172" y="0" width="31" height="225" fill="#CC0000"/>
<rect y="97" width="375" height="31" fill="#CC0000"/>
<rect x="465" y="30" width="398" height="390" fill="white" rx="10"/>
<rect x="480" y="45" width="368" height="360" fill="#68BFE5" rx="8"/>
<rect x="492" y="65" width="145" height="110" fill="#3E7A32"/>
<rect x="492" y="185" width="145" height="110" fill="#FFFFFF"/>
<rect x="492" y="65" width="55" height="230" fill="#003082"/>
<polygon points="700,120 712,155 748,156 720,178 730,213 700,192 670,213 680,178 652,156 688,155" fill="#FFD700"/>
<rect x="648" y="200" width="110" height="110" fill="#3E7A32"/>
</svg>