<svg xmlns="http://www.w3.org/2000/svg" viewBox="0 0 900 450">
<rect width="900" height="225" fill="#0038A8"/>
<rect y="225" width="900" height="225" fill="#CE1126"/>
<polygon points="0,0 380,225 0,450" fill="#FFFFFF"/>
<circle cx="155" cy="225" r="65" fill="#FCD116"/>
<polygon points="155.0,190.0 163.2,213.7 188.3,214.2 168.3,229.3 175.6,253.3 155.0,239.0 134.4,253.3 141.7,229.3 121.7,214.2 146.8,213.7" fill="white"/>
<polygon points="60.0,95.0 65.9,111.9 83.8,112.3 69.5,123.1 74.7,140.2 60.0,130.0 45.3,140.2 50.5,123.1 36.2,112.3 54.1,111.9" fill="#FCD116"/>
<polygon points="250.0,95.0 255.9,111.9 273.8,112.3 259.5,123.1 264.7,140.2 250.0,130.0 235.3,140.2 240.5,123.1 226.2,112.3 244.1,111.9" fill="#FCD116"/>
<polygon points="155.0,55.0 160.9,71.9 178.8,72.3 164.5,83.1 169.7,100.2 155.0,90.0 140.3,100.2 145.5,83.1 131.2,72.3 149.1,71.9" fill="#FCD116"/>
</svg>