<svg xmlns="http://www.w3.org/2000/svg" viewBox="0 0 900 600">
<rect width="900" height="600" fill="#CE1126"/>
<polygon points="75,0 825,0 900,75 900,525 825,600 75,600 0,525 0,75" fill="#009E60"/>
<polygon points="80,12 820,12 888,80 888,520 820,588 80,588 12,520 12,80" fill="#FCD116"/>
<polygon points="12,12 888,588 12,588" fill="#009E60"/>
<polygon points="12,12 888,12 888,588" fill="#CE1126"/>
<circle cx="450" cy="300" r="78" fill="#FCD116"/>
<circle cx="450" cy="300" r="62" fill="#CE1126"/>
<polygon points="450,262 458,286 483,286 463,301 470,325 450,310 430,325 437,301 417,286 442,286" fill="#FCD116"/>
<g fill="#FCD116">
  <polygon points="450,40 456,57 474,57 460,68 465,85 450,74 435,85 440,68 426,57 444,57"/>
  <polygon points="450,515 456,532 474,532 460,543 465,560 450,549 435,560 440,543 426,532 444,532"/>
  <polygon points="72,200 78,217 96,217 82,228 87,245 72,234 57,245 62,228 48,217 66,217"/>
  <polygon points="828,200 834,217 852,217 838,228 843,245 828,234 813,245 818,228 804,217 822,217"/>
  <polygon points="72,400 78,417 96,417 82,428 87,445 72,434 57,445 62,428 48,417 66,417"/>
  <polygon points="828,400 834,417 852,417 838,428 843,445 828,434 813,445 818,428 804,417 822,417"/>
</g>
<circle cx="115" cy="490" r="42" fill="#CE1126"/>
<ellipse cx="115" cy="478" rx="18" ry="28" fill="#FCD116"/>
<ellipse cx="115" cy="500" rx="18" ry="18" fill="#FCD116"/>
</svg>