<svg xmlns="http://www.w3.org/2000/svg" viewBox="0 0 900 600">
<rect width="900" height="200" fill="#0073CF"/>
<rect y="200" width="900" height="200" fill="#FFFFFF"/>
<rect y="400" width="900" height="200" fill="#0073CF"/>
<polygon points="450.0,275.0 455.9,291.9 473.8,292.3 459.5,303.1 464.7,320.2 450.0,310.0 435.3,320.2 440.5,303.1 426.2,292.3 444.1,291.9" fill="#0073CF"/>
<polygon points="300.0,275.0 305.9,291.9 323.8,292.3 309.5,303.1 314.7,320.2 300.0,310.0 285.3,320.2 290.5,303.1 276.2,292.3 294.1,291.9" fill="#0073CF"/>
<polygon points="600.0,275.0 605.9,291.9 623.8,292.3 609.5,303.1 614.7,320.2 600.0,310.0 585.3,320.2 590.5,303.1 576.2,292.3 594.1,291.9" fill="#0073CF"/>
<polygon points="375.0,225.0 380.9,241.9 398.8,242.3 384.5,253.1 389.7,270.2 375.0,260.0 360.3,270.2 365.5,253.1 351.2,242.3 369.1,241.9" fill="#0073CF"/>
<polygon points="525.0,225.0 530.9,241.9 548.8,242.3 534.5,253.1 539.7,270.2 525.0,260.0 510.3,270.2 515.5,253.1 501.2,242.3 519.1,241.9" fill="#0073CF"/>
</svg>