<svg xmlns="http://www.w3.org/2000/svg" viewBox="0 0 900 600">
<rect width="900" height="200" fill="#0073CF"/>
<rect y="200" width="900" height="200" fill="#FFFFFF"/>
<rect y="400" width="900" height="200" fill="#0073CF"/>
<polygon points="450,278 454,291 467,291 457,299 461,312 450,304 439,312 443,299 433,291 446,291" fill="#0073CF"/>
<polygon points="278,278 282,291 295,291 285,299 289,312 278,304 267,312 271,299 261,291 274,291" fill="#0073CF"/>
<polygon points="622,278 626,291 639,291 629,299 633,312 622,304 611,312 615,299 605,291 618,291" fill="#0073CF"/>
<polygon points="364,235 368,248 381,248 371,256 375,269 364,261 353,269 357,256 347,248 360,248" fill="#0073CF"/>
<polygon points="536,235 540,248 553,248 543,256 547,269 536,261 525,269 529,256 519,248 532,248" fill="#0073CF"/>
</svg>