<svg xmlns="http://www.w3.org/2000/svg" viewBox="0 0 900 600">
<rect width="900" height="200" fill="#FF9933"/>
<rect y="200" width="900" height="200" fill="#FFFFFF"/>
<rect y="400" width="900" height="200" fill="#138808"/>
<circle cx="450" cy="300" r="72" fill="none" stroke="#000080" stroke-width="8"/>
<circle cx="450" cy="300" r="12" fill="#000080"/>
<g stroke="#000080" stroke-width="2.5" fill="none">
<line x1="450" y1="228" x2="450" y2="372"/>
<line x1="378" y1="300" x2="522" y2="300"/>
<line x1="399" y1="249" x2="501" y2="351"/>
<line x1="501" y1="249" x2="399" y2="351"/>
<line x1="381" y1="270" x2="519" y2="330"/>
<line x1="519" y1="270" x2="381" y2="330"/>
<line x1="429" y1="230" x2="471" y2="370"/>
<line x1="471" y1="230" x2="429" y2="370"/>
<line x1="379" y1="285" x2="521" y2="315"/>
<line x1="521" y1="285" x2="379" y2="315"/>
<line x1="430" y1="229" x2="470" y2="371"/>
<line x1="470" y1="229" x2="430" y2="371"/>
</g></svg>