<svg xmlns="http://www.w3.org/2000/svg" viewBox="0 0 900 600">
<rect width="900" height="600" fill="#003893"/>
<rect y="330" width="900" height="60" fill="#FFFFFF"/>
<rect y="390" width="900" height="30" fill="#CF2027"/>
<rect y="420" width="900" height="60" fill="#FFFFFF"/>
<polygon points="100.0,365.0 104.7,378.5 119.0,378.8 107.6,387.5 111.8,401.2 100.0,393.0 88.2,401.2 92.4,387.5 81.0,378.8 95.3,378.5" fill="#F7D116"/><polygon points="200.0,365.0 204.7,378.5 219.0,378.8 207.6,387.5 211.8,401.2 200.0,393.0 188.2,401.2 192.4,387.5 181.0,378.8 195.3,378.5" fill="#F7D116"/><polygon points="300.0,365.0 304.7,378.5 319.0,378.8 307.6,387.5 311.8,401.2 300.0,393.0 288.2,401.2 292.4,387.5 281.0,378.8 295.3,378.5" fill="#F7D116"/><polygon points="400.0,365.0 404.7,378.5 419.0,378.8 407.6,387.5 411.8,401.2 400.0,393.0 388.2,401.2 392.4,387.5 381.0,378.8 395.3,378.5" fill="#F7D116"/><polygon points="500.0,365.0 504.7,378.5 519.0,378.8 507.6,387.5 511.8,401.2 500.0,393.0 488.2,401.2 492.4,387.5 481.0,378.8 495.3,378.5" fill="#F7D116"/><polygon points="600.0,365.0 604.7,378.5 619.0,378.8 607.6,387.5 611.8,401.2 600.0,393.0 588.2,401.2 592.4,387.5 581.0,378.8 595.3,378.5" fill="#F7D116"/><polygon points="700.0,365.0 704.7,378.5 719.0,378.8 707.6,387.5 711.8,401.2 700.0,393.0 688.2,401.2 692.4,387.5 681.0,378.8 695.3,378.5" fill="#F7D116"/><polygon points="800.0,365.0 804.7,378.5 819.0,378.8 807.6,387.5 811.8,401.2 800.0,393.0 788.2,401.2 792.4,387.5 781.0,378.8 795.3,378.5" fill="#F7D116"/><polygon points="900.0,365.0 904.7,378.5 919.0,378.8 907.6,387.5 911.8,401.2 900.0,393.0 888.2,401.2 892.4,387.5 881.0,378.8 895.3,378.5" fill="#F7D116"/><polygon points="1000.0,365.0 1004.7,378.5 1019.0,378.8 1007.6,387.5 1011.8,401.2 1000.0,393.0 988.2,401.2 992.4,387.5 981.0,378.8 995.3,378.5" fill="#F7D116"/>
</svg>