<svg xmlns="http://www.w3.org/2000/svg" viewBox="0 0 900 600">
<rect width="900" height="600" fill="#E8112D"/>
<circle cx="450" cy="300" r="182" fill="#FFEF00"/>
<circle cx="450" cy="300" r="158" fill="#E8112D"/>
<g transform="translate(450,300)" fill="#FFEF00">
<line x1="0" y1="-152" x2="0" y2="-125" stroke="#FFEF00" stroke-width="12"/>
<line x1="108" y1="-108" x2="88" y2="-88" stroke="#FFEF00" stroke-width="12"/>
<line x1="152" y1="0" x2="125" y2="0" stroke="#FFEF00" stroke-width="12"/>
<line x1="108" y1="108" x2="88" y2="88" stroke="#FFEF00" stroke-width="12"/>
<line x1="0" y1="152" x2="0" y2="125" stroke="#FFEF00" stroke-width="12"/>
<line x1="-108" y1="108" x2="-88" y2="88" stroke="#FFEF00" stroke-width="12"/>
<line x1="-152" y1="0" x2="-125" y2="0" stroke="#FFEF00" stroke-width="12"/>
<line x1="-108" y1="-108" x2="-88" y2="-88" stroke="#FFEF00" stroke-width="12"/>
<circle r="80"/>
<g stroke="#E8112D" stroke-width="14" fill="none">
<line x1="0" y1="-75" x2="0" y2="75"/>
<line x1="-75" y1="0" x2="75" y2="0"/>
<line x1="-53" y1="-53" x2="53" y2="53"/>
<line x1="53" y1="-53" x2="-53" y2="53"/>
</g>
<circle r="30" fill="#E8112D"/>
<circle r="18"/>
</g></svg>