<svg xmlns="http://www.w3.org/2000/svg" viewBox="0 0 900 600">
<rect width="900" height="600" fill="#244AA5"/>
<path d="M290,395 C290,342 332,288 375,262 C410,240 432,232 450,232
         C468,232 490,240 525,262 C568,288 610,342 610,395
         C568,362 530,348 495,342 L450,352 L405,342 C370,348 332,362 290,395Z" fill="#D4AF37"/>
<g fill="#D4AF37">
<polygon points="220,158 226,176 245,176 230,188 236,206 220,195 204,206 210,188 195,176 214,176"/>
<polygon points="308,105 314,123 333,123 318,135 324,153 308,142 292,153 298,135 283,123 302,123"/>
<polygon points="410,80 416,98 435,98 420,110 426,128 410,117 394,128 400,110 385,98 404,98"/>
<polygon points="490,80 496,98 515,98 500,110 506,128 490,117 474,128 480,110 465,98 484,98"/>
<polygon points="592,105 598,123 617,123 602,135 608,153 592,142 576,153 582,135 567,123 586,123"/>
<polygon points="680,158 686,176 705,176 690,188 696,206 680,195 664,206 670,188 655,176 674,176"/>
</g></svg>