<svg xmlns="http://www.w3.org/2000/svg" viewBox="0 0 900 600">
<rect width="900" height="200" fill="#FF0000"/>
<rect y="200" width="900" height="200" fill="#FFFFFF"/>
<rect y="400" width="900" height="200" fill="#0032A0"/>
<g transform="translate(350,100)">
  <rect width="200" height="230" fill="#FF0000" rx="4" stroke="#D4AF37" stroke-width="6"/>
  <g fill="white">
    <rect x="0" y="0" width="40" height="46"/>
    <rect x="80" y="0" width="40" height="46"/>
    <rect x="160" y="0" width="40" height="46"/>
    <rect x="40" y="46" width="40" height="46"/>
    <rect x="120" y="46" width="40" height="46"/>
    <rect x="0" y="92" width="40" height="46"/>
    <rect x="80" y="92" width="40" height="46"/>
    <rect x="160" y="92" width="40" height="46"/>
    <rect x="40" y="138" width="40" height="46"/>
    <rect x="120" y="138" width="40" height="46"/>
    <rect x="0" y="184" width="40" height="46"/>
    <rect x="80" y="184" width="40" height="46"/>
    <rect x="160" y="184" width="40" height="46"/>
  </g>
  <g transform="translate(0,-56)">
    <rect x="-2" y="0" width="44" height="48" fill="#003DA5" rx="3" stroke="#D4AF37" stroke-width="3"/>
    <rect x="42" y="0" width="44" height="48" fill="#FFFFFF" rx="3" stroke="#D4AF37" stroke-width="3"/>
    <rect x="86" y="0" width="44" height="48" fill="#003DA5" rx="3" stroke="#D4AF37" stroke-width="3"/>
    <rect x="130" y="0" width="44" height="48" fill="#FF0000" rx="3" stroke="#D4AF37" stroke-width="3"/>
    <rect x="174" y="0" width="28" height="48" fill="#003DA5" rx="3" stroke="#D4AF37" stroke-width="3"/>
    <text x="20" y="32" font-size="24" fill="white" font-family="serif" text-anchor="middle">★</text>
    <text x="64" y="32" font-size="24" fill="#999" font-family="serif" text-anchor="middle">★</text>
    <text x="108" y="32" font-size="24" fill="white" font-family="serif" text-anchor="middle">★</text>
    <text x="152" y="30" font-size="20" fill="white" font-family="serif" text-anchor="middle">☾</text>
    <text x="188" y="32" font-size="20" fill="white" font-family="serif" text-anchor="middle">★</text>
  </g>
</g>
</svg>