<svg xmlns="http://www.w3.org/2000/svg" viewBox="0 0 900 600">
<rect width="900" height="600" fill="#FFFFFF"/>
<rect y="200" width="900" height="200" fill="#0032A0"/>
<rect y="400" width="900" height="200" fill="#FF0000"/>
<rect width="900" height="200" fill="#FF0000"/>
<g transform="translate(350,160)">
<rect width="200" height="200" fill="#FF0000"/>
<g fill="white">
<rect x="0" y="0" width="40" height="40"/><rect x="80" y="0" width="40" height="40"/><rect x="160" y="0" width="40" height="40"/><rect x="40" y="40" width="40" height="40"/><rect x="120" y="40" width="40" height="40"/><rect x="0" y="80" width="40" height="40"/><rect x="80" y="80" width="40" height="40"/><rect x="160" y="80" width="40" height="40"/><rect x="40" y="120" width="40" height="40"/><rect x="120" y="120" width="40" height="40"/><rect x="0" y="160" width="40" height="40"/><rect x="80" y="160" width="40" height="40"/><rect x="160" y="160" width="40" height="40"/>
</g>
</g>
</svg>