<svg xmlns="http://www.w3.org/2000/svg" viewBox="0 0 900 450">
<rect y="0" width="900" height="32" fill="#CC0001"/><rect y="32" width="900" height="32" fill="white"/><rect y="64" width="900" height="32" fill="#CC0001"/><rect y="96" width="900" height="32" fill="white"/><rect y="128" width="900" height="32" fill="#CC0001"/><rect y="160" width="900" height="32" fill="white"/><rect y="192" width="900" height="32" fill="#CC0001"/><rect y="224" width="900" height="32" fill="white"/><rect y="256" width="900" height="32" fill="#CC0001"/><rect y="288" width="900" height="32" fill="white"/><rect y="320" width="900" height="32" fill="#CC0001"/><rect y="352" width="900" height="32" fill="white"/><rect y="384" width="900" height="32" fill="#CC0001"/><rect y="416" width="900" height="32" fill="white"/>
<rect width="450" height="225" fill="#010066"/>
<circle cx="165" cy="113" r="80" fill="#FFD100"/>
<circle cx="195" cy="113" r="65" fill="#010066"/>
<polygon points="245.0,30.0 254.4,57.1 283.0,57.6 260.2,74.9 268.5,102.4 245.0,86.0 221.5,102.4 229.8,74.9 207.0,57.6 235.6,57.1" fill="#FFD100"/>
</svg>