<svg xmlns="http://www.w3.org/2000/svg" viewBox="0 0 900 600"><rect width="900" height="600" fill="#6FB4E8"/><polygon points="450.0,145.0 458.2,168.7 483.3,169.2 463.3,184.3 470.6,208.3 450.0,194.0 429.4,208.3 436.7,184.3 416.7,169.2 441.8,168.7" fill="#FFFFFF"/><polygon points="570.0,265.0 578.2,288.7 603.3,289.2 583.3,304.3 590.6,328.3 570.0,314.0 549.4,328.3 556.7,304.3 536.7,289.2 561.8,288.7" fill="#FFFFFF"/><polygon points="450.0,385.0 458.2,408.7 483.3,409.2 463.3,424.3 470.6,448.3 450.0,434.0 429.4,448.3 436.7,424.3 416.7,409.2 441.8,408.7" fill="#FFFFFF"/><polygon points="330.0,265.0 338.2,288.7 363.3,289.2 343.3,304.3 350.6,328.3 330.0,314.0 309.4,328.3 316.7,304.3 296.7,289.2 321.8,288.7" fill="#FFFFFF"/></svg>