<svg xmlns="http://www.w3.org/2000/svg" viewBox="0 0 900 600">
<rect width="300" height="600" fill="#003DA5"/>
<rect x="300" width="300" height="600" fill="#FFD100"/>
<rect x="600" width="300" height="600" fill="#CC0001"/>
<g transform="translate(450,298)">
<path d="M-18,-122 L18,-122 L28,-42 L58,-42 L58,42 L-58,42 L-58,-42 L-28,-42Z" fill="#8B6914"/>
<rect x="-52" y="42" width="104" height="16" fill="#8B6914"/>
<path d="M-48,-42 C-48,-92 48,-92 48,-42" fill="#CC0001" stroke="#8B6914" stroke-width="5"/>
<path d="M-32,-42 C-32,-78 32,-78 32,-42" fill="#003DA5"/>
<polygon points="0,-112 8,-86 35,-86 14,-70 22,-44 0,-60 -22,-44 -14,-70 -35,-86 -8,-86" fill="#FFD100"/>
</g></svg>