<svg xmlns="http://www.w3.org/2000/svg" viewBox="0 0 600 800">
<polygon points="0,0 400,270 0,530" fill="#003087"/>
<polygon points="0,0 370,250 0,500" fill="#CE1126"/>
<polygon points="0,530 400,800 0,800" fill="#003087"/>
<polygon points="0,500 370,780 0,780" fill="#CE1126"/>
<circle cx="168" cy="195" r="52" fill="none" stroke="white" stroke-width="12"/>
<g fill="white">
  <polygon points="168,130 173,147 190,147 176,158 181,175 168,164 155,175 160,158 146,147 163,147"/>
</g>
<g fill="white" stroke="white" stroke-width="2">
  <circle cx="175" cy="382" r="40" fill="none" stroke="white" stroke-width="12"/>
  <line x1="175" y1="330" x2="175" y2="340"/>
  <line x1="175" y1="424" x2="175" y2="434"/>
  <line x1="123" y1="382" x2="133" y2="382"/>
  <line x1="217" y1="382" x2="227" y2="382"/>
  <line x1="139" y1="346" x2="147" y2="354"/>
  <line x1="203" y1="410" x2="211" y2="418"/>
  <line x1="139" y1="418" x2="147" y2="410"/>
  <line x1="203" y1="354" x2="211" y2="346"/>
</g>
</svg>