<svg xmlns="http://www.w3.org/2000/svg" viewBox="0 0 900 450">
<rect width="900" height="450" fill="#00247D"/>
<rect width="375" height="225" fill="#00247D"/>
<line x1="0" y1="0" x2="375" y2="225" stroke="white" stroke-width="48"/>
<line x1="375" y1="0" x2="0" y2="225" stroke="white" stroke-width="48"/>
<line x1="0" y1="0" x2="375" y2="225" stroke="#CC0000" stroke-width="32"/>
<line x1="375" y1="0" x2="0" y2="225" stroke="#CC0000" stroke-width="32"/>
<rect x="156" y="0" width="63" height="225" fill="white"/>
<rect y="81" width="375" height="63" fill="white"/>
<rect x="172" y="0" width="31" height="225" fill="#CC0000"/>
<rect y="97" width="375" height="31" fill="#CC0000"/>
<polygon points="598,40 608,70 638,71 615,89 624,119 598,102 572,119 581,89 558,71 588,70" fill="white"/>
<polygon points="598,40 607,65 633,66 613,82 621,107 598,92 575,107 583,82 563,66 589,65" fill="#CC0000"/>
<polygon points="748,118 758,148 788,149 765,167 774,197 748,180 722,197 731,167 708,149 738,148" fill="white"/>
<polygon points="748,118 757,143 783,144 763,160 770,185 748,170 726,185 733,160 713,144 739,143" fill="#CC0000"/>
<polygon points="680,258 690,288 720,289 697,307 706,337 680,320 654,337 663,307 640,289 670,288" fill="white"/>
<polygon points="680,258 689,283 715,284 695,300 702,325 680,310 658,325 665,300 645,284 671,283" fill="#CC0000"/>
<polygon points="550,217 558,241 582,242 563,256 570,280 550,267 530,280 537,256 518,242 542,241" fill="white"/>
<polygon points="550,217 558,238 579,239 562,251 568,272 550,260 532,272 538,251 521,239 542,238" fill="#CC0000"/>
</svg>