<svg xmlns="http://www.w3.org/2000/svg" viewBox="0 0 900 450">
<rect width="900" height="450" fill="#00247D"/>
<rect x="0" y="0" width="375" height="225" fill="#00247D"/>
<line x1="0" y1="0" x2="375" y2="225" stroke="white" stroke-width="45"/>
<line x1="375" y1="0" x2="0" y2="225" stroke="white" stroke-width="45"/>
<line x1="0" y1="0" x2="375" y2="225" stroke="#CC0000" stroke-width="30"/>
<line x1="375" y1="0" x2="0" y2="225" stroke="#CC0000" stroke-width="30"/>
<rect x="155" y="0" width="65" height="225" fill="white"/>
<rect y="80" width="375" height="65" fill="white"/>
<rect x="170" y="0" width="35" height="225" fill="#CC0000"/>
<rect y="95" width="375" height="35" fill="#CC0000"/>
<polygon points="600.0,42.0 608.9,67.7 636.1,68.3 614.5,84.7 622.3,110.7 600.0,95.2 577.7,110.7 585.5,84.7 563.9,68.3 591.1,67.7" fill="#CC0000"/>
<polygon points="750.0,122.0 758.9,147.7 786.1,148.3 764.5,164.7 772.3,190.7 750.0,175.2 727.7,190.7 735.5,164.7 713.9,148.3 741.1,147.7" fill="#CC0000"/>
<polygon points="680.0,262.0 688.9,287.7 716.1,288.3 694.5,304.7 702.3,330.7 680.0,315.2 657.7,330.7 665.5,304.7 643.9,288.3 671.1,287.7" fill="#CC0000"/>
<polygon points="550.0,220.0 557.1,240.3 578.5,240.7 561.4,253.7 567.6,274.3 550.0,262.0 532.4,274.3 538.6,253.7 521.5,240.7 542.9,240.3" fill="#CC0000"/>
</svg>