<svg xmlns="http://www.w3.org/2000/svg" viewBox="0 0 900 600">
<rect width="900" height="200" fill="#1EB53A"/>
<rect y="200" width="900" height="200" fill="#FFFFFF"/>
<rect y="400" width="900" height="200" fill="#CE1126"/>
<rect width="900" height="190" fill="#009FE3"/>
<rect y="410" width="900" height="190" fill="#009FE3"/>
<rect y="190" width="900" height="20" fill="#CE1126"/>
<rect y="390" width="900" height="20" fill="#CE1126"/>
<circle cx="130" cy="100" r="60" fill="#FFFFFF"/>
<circle cx="160" cy="100" r="50" fill="#009FE3"/>
<polygon points="220.0,45.0 223.5,55.1 234.3,55.4 225.7,61.9 228.8,72.1 220.0,66.0 211.2,72.1 214.3,61.9 205.7,55.4 216.5,55.1" fill="white"/><polygon points="250.0,105.0 253.5,115.1 264.3,115.4 255.7,121.9 258.8,132.1 250.0,126.0 241.2,132.1 244.3,121.9 235.7,115.4 246.5,115.1" fill="white"/><polygon points="280.0,45.0 283.5,55.1 294.3,55.4 285.7,61.9 288.8,72.1 280.0,66.0 271.2,72.1 274.3,61.9 265.7,55.4 276.5,55.1" fill="white"/><polygon points="310.0,105.0 313.5,115.1 324.3,115.4 315.7,121.9 318.8,132.1 310.0,126.0 301.2,132.1 304.3,121.9 295.7,115.4 306.5,115.1" fill="white"/><polygon points="340.0,45.0 343.5,55.1 354.3,55.4 345.7,61.9 348.8,72.1 340.0,66.0 331.2,72.1 334.3,61.9 325.7,55.4 336.5,55.1" fill="white"/><polygon points="370.0,105.0 373.5,115.1 384.3,115.4 375.7,121.9 378.8,132.1 370.0,126.0 361.2,132.1 364.3,121.9 355.7,115.4 366.5,115.1" fill="white"/><polygon points="400.0,45.0 403.5,55.1 414.3,55.4 405.7,61.9 408.8,72.1 400.0,66.0 391.2,72.1 394.3,61.9 385.7,55.4 396.5,55.1" fill="white"/><polygon points="430.0,105.0 433.5,115.1 444.3,115.4 435.7,121.9 438.8,132.1 430.0,126.0 421.2,132.1 424.3,121.9 415.7,115.4 426.5,115.1" fill="white"/><polygon points="460.0,45.0 463.5,55.1 474.3,55.4 465.7,61.9 468.8,72.1 460.0,66.0 451.2,72.1 454.3,61.9 445.7,55.4 456.5,55.1" fill="white"/><polygon points="490.0,105.0 493.5,115.1 504.3,115.4 495.7,121.9 498.8,132.1 490.0,126.0 481.2,132.1 484.3,121.9 475.7,115.4 486.5,115.1" fill="white"/><polygon points="520.0,45.0 523.5,55.1 534.3,55.4 525.7,61.9 528.8,72.1 520.0,66.0 511.2,72.1 514.3,61.9 505.7,55.4 516.5,55.1" fill="white"/><polygon points="550.0,105.0 553.5,115.1 564.3,115.4 555.7,121.9 558.8,132.1 550.0,126.0 541.2,132.1 544.3,121.9 535.7,115.4 546.5,115.1" fill="white"/>
</svg>