<svg xmlns="http://www.w3.org/2000/svg" viewBox="0 0 900 900">
<polygon points="0,0 900,0 0,900" fill="#000000"/>
<polygon points="900,0 900,900 0,900" fill="#CE1126"/>
<g transform="translate(220,285)" fill="white">
<polygon points="0,-128 16,-78 68,-78 26,-32 40,18 0,-10 -40,18 -26,-32 -68,-78 -16,-78"/>
<polygon points="0,-70 9,-42 36,-42 14,-18 22,10 0,-6 -22,10 -14,-18 -36,-42 -9,-42" transform="translate(188,-148)"/>
<polygon points="0,-65 8,-38 33,-38 12,-16 20,8 0,-5 -20,8 -12,-16 -33,-38 -8,-38" transform="translate(-105,-185)"/>
<polygon points="0,-60 7,-36 30,-36 11,-18 18,7 0,-6 -18,7 -11,-18 -30,-36 -7,-36" transform="translate(232,-28)"/>
<polygon points="0,-55 6,-32 26,-32 10,-16 15,5 0,-5 -15,5 -10,-16 -26,-32 -6,-32" transform="translate(105,82)"/>
</g>
<g transform="translate(668,618)" fill="#FCD116">
<polygon points="0,-108 14,-62 60,-62 22,-28 36,22 0,-4 -36,22 -22,-28 -60,-62 -14,-62"/>
</g></svg>