<svg xmlns="http://www.w3.org/2000/svg" viewBox="0 0 900 900">
<polygon points="0,0 900,0 0,900" fill="#000000"/>
<polygon points="900,0 900,900 0,900" fill="#CE1126"/>
<polygon points="200.0,120.0 218.8,174.1 276.1,175.3 230.4,209.9 247.0,264.7 200.0,232.0 153.0,264.7 169.6,209.9 123.9,175.3 181.2,174.1" fill="white"/>
<polygon points="350.0,50.0 361.8,83.8 397.6,84.5 369.0,106.2 379.4,140.5 350.0,120.0 320.6,140.5 331.0,106.2 302.4,84.5 338.2,83.8" fill="white"/>
<polygon points="100.0,300.0 111.8,333.8 147.6,334.5 119.0,356.2 129.4,390.5 100.0,370.0 70.6,390.5 81.0,356.2 52.4,334.5 88.2,333.8" fill="white"/>
<polygon points="400.0,265.0 408.2,288.7 433.3,289.2 413.3,304.3 420.6,328.3 400.0,314.0 379.4,328.3 386.7,304.3 366.7,289.2 391.8,288.7" fill="white"/>
<polygon points="250.0,365.0 258.2,388.7 283.3,389.2 263.3,404.3 270.6,428.3 250.0,414.0 229.4,428.3 236.7,404.3 216.7,389.2 241.8,388.7" fill="white"/>
<circle cx="680" cy="640" r="120" fill="#FCD116"/>
</svg>