<svg xmlns="http://www.w3.org/2000/svg" viewBox="0 0 900 600">
<rect width="225" height="600" fill="#009E60"/>
<rect x="225" width="450" height="600" fill="#FCD116"/>
<rect x="675" width="225" height="600" fill="#009E60"/>
<polygon points="320.0,240.0 334.1,280.6 377.1,281.5 342.8,307.4 355.3,348.5 320.0,324.0 284.7,348.5 297.2,307.4 262.9,281.5 305.9,280.6" fill="#009E60"/>
<polygon points="450.0,170.0 464.1,210.6 507.1,211.5 472.8,237.4 485.3,278.5 450.0,254.0 414.7,278.5 427.2,237.4 392.9,211.5 435.9,210.6" fill="#009E60"/>
<polygon points="450.0,310.0 464.1,350.6 507.1,351.5 472.8,377.4 485.3,418.5 450.0,394.0 414.7,418.5 427.2,377.4 392.9,351.5 435.9,350.6" fill="#009E60"/>
<polygon points="580.0,240.0 594.1,280.6 637.1,281.5 602.8,307.4 615.3,348.5 580.0,324.0 544.7,348.5 557.2,307.4 522.9,281.5 565.9,280.6" fill="#009E60"/>
</svg>