<svg xmlns="http://www.w3.org/2000/svg" viewBox="0 0 900 600">
<rect width="900" height="600" fill="#009E60"/>
<rect width="900" height="200" fill="#000000"/>
<polygon points="0,200 900,0 900,400" fill="#FFD100"/>
<polygon points="0,400 900,200 900,600" fill="#FFD100"/>
<polygon points="0,200 900,0 900,200 0,400" fill="#000000"/>
<polygon points="200.0,250.0 211.8,283.8 247.6,284.5 219.0,306.2 229.4,340.5 200.0,320.0 170.6,340.5 181.0,306.2 152.4,284.5 188.2,283.8" fill="white"/>
<polygon points="500.0,100.0 511.8,133.8 547.6,134.5 519.0,156.2 529.4,190.5 500.0,170.0 470.6,190.5 481.0,156.2 452.4,134.5 488.2,133.8" fill="white"/>
</svg>