<svg xmlns="http://www.w3.org/2000/svg" viewBox="0 0 900 450">
<polygon points="0,0 900,450 0,450" fill="#0D9C4B"/>
<polygon points="0,0 900,0 900,450" fill="#0057A9"/>
<line x1="0" y1="0" x2="900" y2="450" stroke="#FCD116" stroke-width="80"/>
<polygon points="80.0,30.0 87.1,50.3 108.5,50.7 91.4,63.7 97.6,84.3 80.0,72.0 62.4,84.3 68.6,63.7 51.5,50.7 72.9,50.3" fill="white"/>
<polygon points="160.0,0.0 167.1,20.3 188.5,20.7 171.4,33.7 177.6,54.3 160.0,42.0 142.4,54.3 148.6,33.7 131.5,20.7 152.9,20.3" fill="white"/>
<polygon points="50.0,110.0 57.1,130.3 78.5,130.7 61.4,143.7 67.6,164.3 50.0,152.0 32.4,164.3 38.6,143.7 21.5,130.7 42.9,130.3" fill="white"/>
<polygon points="210.0,70.0 217.1,90.3 238.5,90.7 221.4,103.7 227.6,124.3 210.0,112.0 192.4,124.3 198.6,103.7 181.5,90.7 202.9,90.3" fill="white"/>
<polygon points="140.0,140.0 147.1,160.3 168.5,160.7 151.4,173.7 157.6,194.3 140.0,182.0 122.4,194.3 128.6,173.7 111.5,160.7 132.9,160.3" fill="white"/>
</svg>