<svg xmlns="http://www.w3.org/2000/svg" viewBox="0 0 900 450">
<rect width="900" height="450" fill="#CE1126"/>
<rect width="360" height="225" fill="#002A8F"/>
<polygon points="200.0,50.0 207.1,70.3 228.5,70.7 211.4,83.7 217.6,104.3 200.0,92.0 182.4,104.3 188.6,83.7 171.5,70.7 192.9,70.3" fill="white"/>
<polygon points="300.0,100.0 307.1,120.3 328.5,120.7 311.4,133.7 317.6,154.3 300.0,142.0 282.4,154.3 288.6,133.7 271.5,120.7 292.9,120.3" fill="white"/>
<polygon points="220.0,160.0 227.1,180.3 248.5,180.7 231.4,193.7 237.6,214.3 220.0,202.0 202.4,214.3 208.6,193.7 191.5,180.7 212.9,180.3" fill="white"/>
<polygon points="100.0,130.0 107.1,150.3 128.5,150.7 111.4,163.7 117.6,184.3 100.0,172.0 82.4,184.3 88.6,163.7 71.5,150.7 92.9,150.3" fill="white"/>
<polygon points="160.0,85.0 163.5,95.1 174.3,95.4 165.7,101.9 168.8,112.1 160.0,106.0 151.2,112.1 154.3,101.9 145.7,95.4 156.5,95.1" fill="white"/>
</svg>