<svg xmlns="http://www.w3.org/2000/svg" viewBox="0 0 900 600">
<rect width="900" height="300" fill="#EF3340"/>
<rect y="300" width="900" height="300" fill="#FFFFFF"/>
<circle cx="200" cy="150" r="90" fill="#FFFFFF"/>
<circle cx="240" cy="150" r="75" fill="#EF3340"/>
<polygon points="330.0,82.0 336.6,100.9 356.6,101.3 340.7,113.5 346.5,132.7 330.0,121.2 313.5,132.7 319.3,113.5 303.4,101.3 323.4,100.9" fill="#FFFFFF"/>
<polygon points="360.0,127.0 366.6,145.9 386.6,146.3 370.7,158.5 376.5,177.7 360.0,166.2 343.5,177.7 349.3,158.5 333.4,146.3 353.4,145.9" fill="#FFFFFF"/>
<polygon points="340.0,172.0 346.6,190.9 366.6,191.3 350.7,203.5 356.5,222.7 340.0,211.2 323.5,222.7 329.3,203.5 313.4,191.3 333.4,190.9" fill="#FFFFFF"/>
<polygon points="290.0,172.0 296.6,190.9 316.6,191.3 300.7,203.5 306.5,222.7 290.0,211.2 273.5,222.7 279.3,203.5 263.4,191.3 283.4,190.9" fill="#FFFFFF"/>
<polygon points="270.0,127.0 276.6,145.9 296.6,146.3 280.7,158.5 286.5,177.7 270.0,166.2 253.5,177.7 259.3,158.5 243.4,146.3 263.4,145.9" fill="#FFFFFF"/>
</svg>