<svg xmlns="http://www.w3.org/2000/svg" viewBox="0 0 900 600">
<rect width="900" height="200" fill="#FFFFFF"/>
<rect y="200" width="900" height="200" fill="#003DA5"/>
<rect y="400" width="900" height="200" fill="#CE1126"/>
<g transform="translate(106,82)">
  <rect width="168" height="215" fill="#CE1126" rx="5"/>
  <rect x="12" y="12" width="144" height="191" fill="#FFFFFF" rx="3"/>
  <rect x="12" y="12" width="144" height="82" fill="#003DA5" rx="3"/>
  <g fill="#FFDF00">
    <polygon points="52,38 62,38 72,15 82,38 92,38"/>
    <polygon points="76,48 86,48 96,25 106,48 116,48"/>
    <polygon points="100,38 110,38 120,15 130,38 140,38"/>
  </g>
  <g fill="#003DA5">
    <path d="M12,94 Q40,82 84,92 Q112,82 156,94 L156,100 Q112,88 84,98 Q40,88 12,100Z"/>
    <path d="M12,106 Q40,94 84,104 Q112,94 156,106 L156,112 Q112,100 84,110 Q40,100 12,112Z"/>
    <path d="M12,118 Q40,106 84,116 Q112,106 156,118 L156,124 Q112,112 84,122 Q40,112 12,124Z"/>
  </g>
</g>
</svg>