<svg xmlns="http://www.w3.org/2000/svg" viewBox="0 0 900 600">
<rect width="900" height="600" fill="#8D153A"/>
<rect x="130" width="100" height="600" fill="#F47B20"/>
<rect x="230" width="100" height="600" fill="#006A4E"/>
<rect x="330" width="570" height="600" fill="#8D153A"/>
<rect x="358" y="44" width="484" height="512" fill="#FFB81C" rx="14"/>
<g transform="translate(600,300)">
<path d="M-90,-125 C-102,-82 -102,82 -90,125 C-70,148 -40,155 0,155
          C40,155 70,148 90,125 C102,82 102,-82 90,-125
          C70,-148 40,-155 0,-155 C-40,-155 -70,-148 -90,-125Z"
      fill="#8D153A" stroke="#FFB81C" stroke-width="12"/>
<polygon points="0,-145 26,-105 68,-120 48,-82 84,-68 48,-58 62,-22 26,-38 0,-8 -26,-38 -62,-22 -48,-58 -84,-68 -48,-82 -68,-120 -26,-105" fill="#FFB81C"/>
<circle cx="-57" cy="135" r="19" fill="#006A4E"/>
<circle cx="57" cy="135" r="19" fill="#006A4E"/>
<circle cx="-57" cy="-135" r="19" fill="#006A4E"/>
<circle cx="57" cy="-135" r="19" fill="#006A4E"/>
</g></svg>