<svg xmlns="http://www.w3.org/2000/svg" viewBox="0 0 900 600">
<rect width="900" height="600" fill="#1A9A4E"/>
<rect width="222" height="600" fill="#A80030"/>
<g transform="translate(111,52)" fill="#FFD700">
<rect x="-52" y="0" width="104" height="20" rx="3"/>
<rect x="-52" y="30" width="104" height="20" rx="3"/>
<rect x="-52" y="60" width="104" height="20" rx="3"/>
<rect x="-52" y="90" width="104" height="20" rx="3"/>
<rect x="-52" y="120" width="104" height="20" rx="3"/>
</g>
<g transform="translate(111,310)">
<circle r="72" fill="#FFD700"/>
<circle r="60" fill="#A80030"/>
<circle r="42" fill="#FFD700"/>
<path d="M-28,-25 L0,-45 L28,-25 L28,25 L0,45 L-28,25Z" fill="#1A9A4E"/>
</g>
<g transform="translate(360,300)" fill="#FFD700">
<circle cx="0" cy="-82" r="20"/>
<circle cx="58" cy="-58" r="20"/>
<circle cx="82" cy="0" r="20"/>
<circle cx="58" cy="58" r="20"/>
<circle cx="0" cy="82" r="20"/>
</g></svg>