<svg xmlns="http://www.w3.org/2000/svg" viewBox="0 0 900 450">
<rect width="900" height="450" fill="#009FCA"/>
<rect x="0" y="0" width="375" height="225" fill="#009FCA"/>
<line x1="0" y1="0" x2="375" y2="225" stroke="white" stroke-width="45"/>
<line x1="375" y1="0" x2="0" y2="225" stroke="white" stroke-width="45"/>
<rect x="155" y="0" width="65" height="225" fill="white"/>
<rect y="80" width="375" height="65" fill="white"/>
<polygon points="600.0,50.0 607.1,70.3 628.5,70.7 611.4,83.7 617.6,104.3 600.0,92.0 582.4,104.3 588.6,83.7 571.5,70.7 592.9,70.3" fill="white"/>
<polygon points="750.0,120.0 757.1,140.3 778.5,140.7 761.4,153.7 767.6,174.3 750.0,162.0 732.4,174.3 738.6,153.7 721.5,140.7 742.9,140.3" fill="white"/>
<polygon points="820.0,270.0 827.1,290.3 848.5,290.7 831.4,303.7 837.6,324.3 820.0,312.0 802.4,324.3 808.6,303.7 791.5,290.7 812.9,290.3" fill="white"/>
<polygon points="700.0,350.0 707.1,370.3 728.5,370.7 711.4,383.7 717.6,404.3 700.0,392.0 682.4,404.3 688.6,383.7 671.5,370.7 692.9,370.3" fill="white"/>
<polygon points="550.0,310.0 557.1,330.3 578.5,330.7 561.4,343.7 567.6,364.3 550.0,352.0 532.4,364.3 538.6,343.7 521.5,330.7 542.9,330.3" fill="white"/>
<polygon points="500.0,170.0 507.1,190.3 528.5,190.7 511.4,203.7 517.6,224.3 500.0,212.0 482.4,224.3 488.6,203.7 471.5,190.7 492.9,190.3" fill="white"/>
<polygon points="650.0,220.0 657.1,240.3 678.5,240.7 661.4,253.7 667.6,274.3 650.0,262.0 632.4,274.3 638.6,253.7 621.5,240.7 642.9,240.3" fill="white"/>
<polygon points="770.0,370.0 777.1,390.3 798.5,390.7 781.4,403.7 787.6,424.3 770.0,412.0 752.4,424.3 758.6,403.7 741.5,390.7 762.9,390.3" fill="white"/>
<polygon points="870.0,130.0 877.1,150.3 898.5,150.7 881.4,163.7 887.6,184.3 870.0,172.0 852.4,184.3 858.6,163.7 841.5,150.7 862.9,150.3" fill="white"/>
</svg>