<svg xmlns="http://www.w3.org/2000/svg" viewBox="0 0 900 600">
<rect y="0" width="900" height="66" fill="white"/>
<rect y="66" width="900" height="66" fill="#0038A8"/>
<rect y="132" width="900" height="66" fill="white"/>
<rect y="198" width="900" height="66" fill="#0038A8"/>
<rect y="264" width="900" height="66" fill="white"/>
<rect y="330" width="900" height="66" fill="#0038A8"/>
<rect y="396" width="900" height="66" fill="white"/>
<rect y="462" width="900" height="66" fill="#0038A8"/>
<rect y="528" width="900" height="66" fill="white"/>
<rect width="360" height="396" fill="white"/>
<g transform="translate(180,198)">
<circle r="102" fill="#FCD116"/>
<g stroke="#FCD116" stroke-width="18" fill="none">
<line x1="0" y1="-118" x2="0" y2="-138"/>
<line x1="83" y1="-83" x2="98" y2="-98"/>
<line x1="118" y1="0" x2="138" y2="0"/>
<line x1="83" y1="83" x2="98" y2="98"/>
<line x1="0" y1="118" x2="0" y2="138"/>
<line x1="-83" y1="83" x2="-98" y2="98"/>
<line x1="-118" y1="0" x2="-138" y2="0"/>
<line x1="-83" y1="-83" x2="-98" y2="-98"/>
</g>
<circle cx="-12" cy="-8" r="7" fill="#000"/>
<circle cx="12" cy="-8" r="7" fill="#000"/>
<path d="M-18,12 Q0,30 18,12" stroke="#000" stroke-width="5" fill="none"/>
</g></svg>