<svg xmlns="http://www.w3.org/2000/svg" viewBox="0 0 900 600">
<rect width="900" height="200" fill="#CF142B"/>
<rect y="200" width="900" height="200" fill="#FFD100"/>
<rect y="400" width="900" height="200" fill="#003893"/>
<polygon points="350.0,282.0 354.2,294.2 367.1,294.4 356.8,302.2 360.6,314.6 350.0,307.2 339.4,314.6 343.2,302.2 332.9,294.4 345.8,294.2" fill="white"/><polygon points="375.0,282.0 379.2,294.2 392.1,294.4 381.8,302.2 385.6,314.6 375.0,307.2 364.4,314.6 368.2,302.2 357.9,294.4 370.8,294.2" fill="white"/><polygon points="400.0,282.0 404.2,294.2 417.1,294.4 406.8,302.2 410.6,314.6 400.0,307.2 389.4,314.6 393.2,302.2 382.9,294.4 395.8,294.2" fill="white"/><polygon points="425.0,282.0 429.2,294.2 442.1,294.4 431.8,302.2 435.6,314.6 425.0,307.2 414.4,314.6 418.2,302.2 407.9,294.4 420.8,294.2" fill="white"/><polygon points="450.0,282.0 454.2,294.2 467.1,294.4 456.8,302.2 460.6,314.6 450.0,307.2 439.4,314.6 443.2,302.2 432.9,294.4 445.8,294.2" fill="white"/><polygon points="475.0,282.0 479.2,294.2 492.1,294.4 481.8,302.2 485.6,314.6 475.0,307.2 464.4,314.6 468.2,302.2 457.9,294.4 470.8,294.2" fill="white"/><polygon points="500.0,282.0 504.2,294.2 517.1,294.4 506.8,302.2 510.6,314.6 500.0,307.2 489.4,314.6 493.2,302.2 482.9,294.4 495.8,294.2" fill="white"/><polygon points="525.0,282.0 529.2,294.2 542.1,294.4 531.8,302.2 535.6,314.6 525.0,307.2 514.4,314.6 518.2,302.2 507.9,294.4 520.8,294.2" fill="white"/>
</svg>