<svg xmlns="http://www.w3.org/2000/svg" viewBox="0 0 1900 1000">
<rect y="0" width="1900" height="76" fill="#B22234"/><rect y="76" width="1900" height="76" fill="white"/><rect y="152" width="1900" height="76" fill="#B22234"/><rect y="228" width="1900" height="76" fill="white"/><rect y="304" width="1900" height="76" fill="#B22234"/><rect y="380" width="1900" height="76" fill="white"/><rect y="456" width="1900" height="76" fill="#B22234"/><rect y="532" width="1900" height="76" fill="white"/><rect y="608" width="1900" height="76" fill="#B22234"/><rect y="684" width="1900" height="76" fill="white"/><rect y="760" width="1900" height="76" fill="#B22234"/><rect y="836" width="1900" height="76" fill="white"/><rect y="912" width="1900" height="76" fill="#B22234"/>
<rect width="760" height="538" fill="#3C3B6E"/>
<polygon points="40.0,13.0 45.2,27.9 60.9,28.2 48.4,37.7 52.9,52.8 40.0,43.8 27.1,52.8 31.6,37.7 19.1,28.2 34.8,27.9" fill="white"/><polygon points="100.0,13.0 105.2,27.9 120.9,28.2 108.4,37.7 112.9,52.8 100.0,43.8 87.1,52.8 91.6,37.7 79.1,28.2 94.8,27.9" fill="white"/><polygon points="160.0,13.0 165.2,27.9 180.9,28.2 168.4,37.7 172.9,52.8 160.0,43.8 147.1,52.8 151.6,37.7 139.1,28.2 154.8,27.9" fill="white"/><polygon points="220.0,13.0 225.2,27.9 240.9,28.2 228.4,37.7 232.9,52.8 220.0,43.8 207.1,52.8 211.6,37.7 199.1,28.2 214.8,27.9" fill="white"/><polygon points="280.0,13.0 285.2,27.9 300.9,28.2 288.4,37.7 292.9,52.8 280.0,43.8 267.1,52.8 271.6,37.7 259.1,28.2 274.8,27.9" fill="white"/><polygon points="340.0,13.0 345.2,27.9 360.9,28.2 348.4,37.7 352.9,52.8 340.0,43.8 327.1,52.8 331.6,37.7 319.1,28.2 334.8,27.9" fill="white"/><polygon points="400.0,13.0 405.2,27.9 420.9,28.2 408.4,37.7 412.9,52.8 400.0,43.8 387.1,52.8 391.6,37.7 379.1,28.2 394.8,27.9" fill="white"/><polygon points="460.0,13.0 465.2,27.9 480.9,28.2 468.4,37.7 472.9,52.8 460.0,43.8 447.1,52.8 451.6,37.7 439.1,28.2 454.8,27.9" fill="white"/><polygon points="520.0,13.0 525.2,27.9 540.9,28.2 528.4,37.7 532.9,52.8 520.0,43.8 507.1,52.8 511.6,37.7 499.1,28.2 514.8,27.9" fill="white"/><polygon points="580.0,13.0 585.2,27.9 600.9,28.2 588.4,37.7 592.9,52.8 580.0,43.8 567.1,52.8 571.6,37.7 559.1,28.2 574.8,27.9" fill="white"/><polygon points="640.0,13.0 645.2,27.9 660.9,28.2 648.4,37.7 652.9,52.8 640.0,43.8 627.1,52.8 631.6,37.7 619.1,28.2 634.8,27.9" fill="white"/><polygon points="700.0,13.0 705.2,27.9 720.9,28.2 708.4,37.7 712.9,52.8 700.0,43.8 687.1,52.8 691.6,37.7 679.1,28.2 694.8,27.9" fill="white"/><polygon points="40.0,68.0 45.2,82.9 60.9,83.2 48.4,92.7 52.9,107.8 40.0,98.8 27.1,107.8 31.6,92.7 19.1,83.2 34.8,82.9" fill="white"/><polygon points="100.0,68.0 105.2,82.9 120.9,83.2 108.4,92.7 112.9,107.8 100.0,98.8 87.1,107.8 91.6,92.7 79.1,83.2 94.8,82.9" fill="white"/><polygon points="160.0,68.0 165.2,82.9 180.9,83.2 168.4,92.7 172.9,107.8 160.0,98.8 147.1,107.8 151.6,92.7 139.1,83.2 154.8,82.9" fill="white"/><polygon points="220.0,68.0 225.2,82.9 240.9,83.2 228.4,92.7 232.9,107.8 220.0,98.8 207.1,107.8 211.6,92.7 199.1,83.2 214.8,82.9" fill="white"/><polygon points="280.0,68.0 285.2,82.9 300.9,83.2 288.4,92.7 292.9,107.8 280.0,98.8 267.1,107.8 271.6,92.7 259.1,83.2 274.8,82.9" fill="white"/><polygon points="340.0,68.0 345.2,82.9 360.9,83.2 348.4,92.7 352.9,107.8 340.0,98.8 327.1,107.8 331.6,92.7 319.1,83.2 334.8,82.9" fill="white"/><polygon points="400.0,68.0 405.2,82.9 420.9,83.2 408.4,92.7 412.9,107.8 400.0,98.8 387.1,107.8 391.6,92.7 379.1,83.2 394.8,82.9" fill="white"/><polygon points="460.0,68.0 465.2,82.9 480.9,83.2 468.4,92.7 472.9,107.8 460.0,98.8 447.1,107.8 451.6,92.7 439.1,83.2 454.8,82.9" fill="white"/><polygon points="520.0,68.0 525.2,82.9 540.9,83.2 528.4,92.7 532.9,107.8 520.0,98.8 507.1,107.8 511.6,92.7 499.1,83.2 514.8,82.9" fill="white"/><polygon points="580.0,68.0 585.2,82.9 600.9,83.2 588.4,92.7 592.9,107.8 580.0,98.8 567.1,107.8 571.6,92.7 559.1,83.2 574.8,82.9" fill="white"/><polygon points="640.0,68.0 645.2,82.9 660.9,83.2 648.4,92.7 652.9,107.8 640.0,98.8 627.1,107.8 631.6,92.7 619.1,83.2 634.8,82.9" fill="white"/><polygon points="700.0,68.0 705.2,82.9 720.9,83.2 708.4,92.7 712.9,107.8 700.0,98.8 687.1,107.8 691.6,92.7 679.1,83.2 694.8,82.9" fill="white"/><polygon points="40.0,123.0 45.2,137.9 60.9,138.2 48.4,147.7 52.9,162.8 40.0,153.8 27.1,162.8 31.6,147.7 19.1,138.2 34.8,137.9" fill="white"/><polygon points="100.0,123.0 105.2,137.9 120.9,138.2 108.4,147.7 112.9,162.8 100.0,153.8 87.1,162.8 91.6,147.7 79.1,138.2 94.8,137.9" fill="white"/><polygon points="160.0,123.0 165.2,137.9 180.9,138.2 168.4,147.7 172.9,162.8 160.0,153.8 147.1,162.8 151.6,147.7 139.1,138.2 154.8,137.9" fill="white"/><polygon points="220.0,123.0 225.2,137.9 240.9,138.2 228.4,147.7 232.9,162.8 220.0,153.8 207.1,162.8 211.6,147.7 199.1,138.2 214.8,137.9" fill="white"/><polygon points="280.0,123.0 285.2,137.9 300.9,138.2 288.4,147.7 292.9,162.8 280.0,153.8 267.1,162.8 271.6,147.7 259.1,138.2 274.8,137.9" fill="white"/><polygon points="340.0,123.0 345.2,137.9 360.9,138.2 348.4,147.7 352.9,162.8 340.0,153.8 327.1,162.8 331.6,147.7 319.1,138.2 334.8,137.9" fill="white"/><polygon points="400.0,123.0 405.2,137.9 420.9,138.2 408.4,147.7 412.9,162.8 400.0,153.8 387.1,162.8 391.6,147.7 379.1,138.2 394.8,137.9" fill="white"/><polygon points="460.0,123.0 465.2,137.9 480.9,138.2 468.4,147.7 472.9,162.8 460.0,153.8 447.1,162.8 451.6,147.7 439.1,138.2 454.8,137.9" fill="white"/><polygon points="520.0,123.0 525.2,137.9 540.9,138.2 528.4,147.7 532.9,162.8 520.0,153.8 507.1,162.8 511.6,147.7 499.1,138.2 514.8,137.9" fill="white"/><polygon points="580.0,123.0 585.2,137.9 600.9,138.2 588.4,147.7 592.9,162.8 580.0,153.8 567.1,162.8 571.6,147.7 559.1,138.2 574.8,137.9" fill="white"/><polygon points="640.0,123.0 645.2,137.9 660.9,138.2 648.4,147.7 652.9,162.8 640.0,153.8 627.1,162.8 631.6,147.7 619.1,138.2 634.8,137.9" fill="white"/><polygon points="700.0,123.0 705.2,137.9 720.9,138.2 708.4,147.7 712.9,162.8 700.0,153.8 687.1,162.8 691.6,147.7 679.1,138.2 694.8,137.9" fill="white"/><polygon points="40.0,178.0 45.2,192.9 60.9,193.2 48.4,202.7 52.9,217.8 40.0,208.8 27.1,217.8 31.6,202.7 19.1,193.2 34.8,192.9" fill="white"/><polygon points="100.0,178.0 105.2,192.9 120.9,193.2 108.4,202.7 112.9,217.8 100.0,208.8 87.1,217.8 91.6,202.7 79.1,193.2 94.8,192.9" fill="white"/><polygon points="160.0,178.0 165.2,192.9 180.9,193.2 168.4,202.7 172.9,217.8 160.0,208.8 147.1,217.8 151.6,202.7 139.1,193.2 154.8,192.9" fill="white"/><polygon points="220.0,178.0 225.2,192.9 240.9,193.2 228.4,202.7 232.9,217.8 220.0,208.8 207.1,217.8 211.6,202.7 199.1,193.2 214.8,192.9" fill="white"/><polygon points="280.0,178.0 285.2,192.9 300.9,193.2 288.4,202.7 292.9,217.8 280.0,208.8 267.1,217.8 271.6,202.7 259.1,193.2 274.8,192.9" fill="white"/><polygon points="340.0,178.0 345.2,192.9 360.9,193.2 348.4,202.7 352.9,217.8 340.0,208.8 327.1,217.8 331.6,202.7 319.1,193.2 334.8,192.9" fill="white"/><polygon points="400.0,178.0 405.2,192.9 420.9,193.2 408.4,202.7 412.9,217.8 400.0,208.8 387.1,217.8 391.6,202.7 379.1,193.2 394.8,192.9" fill="white"/><polygon points="460.0,178.0 465.2,192.9 480.9,193.2 468.4,202.7 472.9,217.8 460.0,208.8 447.1,217.8 451.6,202.7 439.1,193.2 454.8,192.9" fill="white"/><polygon points="520.0,178.0 525.2,192.9 540.9,193.2 528.4,202.7 532.9,217.8 520.0,208.8 507.1,217.8 511.6,202.7 499.1,193.2 514.8,192.9" fill="white"/><polygon points="580.0,178.0 585.2,192.9 600.9,193.2 588.4,202.7 592.9,217.8 580.0,208.8 567.1,217.8 571.6,202.7 559.1,193.2 574.8,192.9" fill="white"/><polygon points="640.0,178.0 645.2,192.9 660.9,193.2 648.4,202.7 652.9,217.8 640.0,208.8 627.1,217.8 631.6,202.7 619.1,193.2 634.8,192.9" fill="white"/><polygon points="700.0,178.0 705.2,192.9 720.9,193.2 708.4,202.7 712.9,217.8 700.0,208.8 687.1,217.8 691.6,202.7 679.1,193.2 694.8,192.9" fill="white"/><polygon points="40.0,233.0 45.2,247.9 60.9,248.2 48.4,257.7 52.9,272.8 40.0,263.8 27.1,272.8 31.6,257.7 19.1,248.2 34.8,247.9" fill="white"/><polygon points="100.0,233.0 105.2,247.9 120.9,248.2 108.4,257.7 112.9,272.8 100.0,263.8 87.1,272.8 91.6,257.7 79.1,248.2 94.8,247.9" fill="white"/>
</svg>