<svg xmlns="http://www.w3.org/2000/svg" viewBox="0 0 900 600">
<rect width="900" height="600" fill="#CF101A"/>
<rect y="400" width="900" height="200" fill="#4AA657"/>
<rect width="105" height="600" fill="#FFFFFF"/>
<g>
<g fill="#CF101A">
<rect x="8" y="0" width="22" height="58"/>
<rect x="8" y="78" width="22" height="58"/>
<rect x="8" y="156" width="22" height="58"/>
<rect x="8" y="234" width="22" height="58"/>
<rect x="8" y="312" width="22" height="58"/>
<rect x="8" y="390" width="22" height="58"/>
<rect x="8" y="468" width="22" height="58"/>
<rect x="38" y="38" width="22" height="58"/>
<rect x="38" y="116" width="22" height="58"/>
<rect x="38" y="194" width="22" height="58"/>
<rect x="38" y="272" width="22" height="58"/>
<rect x="38" y="350" width="22" height="58"/>
<rect x="38" y="428" width="22" height="58"/>
<rect x="38" y="506" width="22" height="58"/>
<rect x="68" y="0" width="22" height="58"/>
<rect x="68" y="78" width="22" height="58"/>
<rect x="68" y="156" width="22" height="58"/>
<rect x="68" y="234" width="22" height="58"/>
<rect x="68" y="312" width="22" height="58"/>
<rect x="68" y="390" width="22" height="58"/>
<rect x="68" y="468" width="22" height="58"/>
</g>
<g fill="#4AA657">
<rect x="8" y="390" width="22" height="58"/>
<rect x="8" y="468" width="22" height="58"/>
<rect x="38" y="428" width="22" height="58"/>
<rect x="38" y="506" width="22" height="58"/>
<rect x="68" y="390" width="22" height="58"/>
<rect x="68" y="468" width="22" height="58"/>
</g>
</g></svg>