<svg xmlns="http://www.w3.org/2000/svg" viewBox="0 0 900 600">
<rect y="0" width="900" height="86" fill="#006400"/>
<rect y="86" width="900" height="86" fill="#FFD200"/>
<rect y="172" width="900" height="86" fill="#D21034"/>
<rect y="258" width="900" height="86" fill="#000000"/>
<rect y="344" width="900" height="86" fill="#D21034"/>
<rect y="430" width="900" height="86" fill="#FFD200"/>
<rect y="516" width="900" height="86" fill="#006400"/>
<polygon points="0,0 342,300 0,600" fill="#FFFFFF"/>
<polygon points="22,0 312,300 22,600" fill="#000000"/>
<g transform="translate(168,300)">
<polygon points="0,-72 13,-42 46,-42 20,-18 29,12 0,-4 -29,12 -20,-18 -46,-42 -13,-42" fill="#FFD200"/>
<path d="M-20,-40 C-38,-22 -38,22 -20,40 L-10,30 C-24,16 -24,-16 -10,-30Z" fill="#D21034"/>
</g></svg>