<svg xmlns="http://www.w3.org/2000/svg" viewBox="0 0 900 600">
<rect width="900" height="600" fill="#FFFFFF"/>
<g transform="translate(450,300)">
<path d="M0,-130 A130,130 0 0,1 0,130 A65,65 0 0,1 0,0 A65,65 0 0,0 0,-130Z" fill="#003478"/>
<path d="M0,-130 A130,130 0 0,0 0,130 A65,65 0 0,0 0,0 A65,65 0 0,1 0,-130Z" fill="#C60C30"/>
<circle cx="0" cy="-65" r="65" fill="#C60C30"/>
<circle cx="0" cy="65" r="65" fill="#003478"/>
</g>
<g stroke="#000000" stroke-width="18" fill="none">
<g transform="translate(170,122) rotate(-45)">
<line x1="-68" y1="-26" x2="68" y2="-26"/>
<line x1="-68" y1="0" x2="68" y2="0"/>
<line x1="-68" y1="26" x2="68" y2="26"/>
</g>
<g transform="translate(730,122) rotate(45)">
<line x1="-68" y1="-26" x2="68" y2="-26"/>
<line x1="-68" y1="0" x2="68" y2="0"/>
<line x1="-68" y1="26" x2="68" y2="26"/>
</g>
<g transform="translate(170,478) rotate(45)">
<line x1="-68" y1="-26" x2="68" y2="-26"/>
<line x1="-68" y1="26" x2="68" y2="26"/>
</g>
<g transform="translate(730,478) rotate(-45)">
<line x1="-68" y1="-26" x2="68" y2="-26"/>
<line x1="-68" y1="26" x2="68" y2="26"/>
</g>
</g></svg>